<svg width="72" height="72" viewBox="0 0 72 72" fill="none" xmlns="http://www.w3.org/2000/svg">
<path d="M65.2164 41.5717C66.0204 46.5449 64.6208 51.8753 60.3624 55.6275C57.4142 58.3374 53.5429 59.8264 49.5228 59.7966H16.4977C2.59079 58.7841 2.56101 38.5343 16.4977 37.5218H16.6466C10.1249 19.2672 27.0693 8.54665 39.8445 12.6562" stroke="#22165B" stroke-width="7" stroke-miterlimit="10" stroke-linecap="round" stroke-linejoin="round"/>
<path d="M21.6197 38.7427C20.0711 37.9684 18.3737 37.5515 16.6465 37.5217M65.4248 25.3123C65.4248 28.588 63.9061 31.5361 61.494 33.442C59.737 34.8714 57.444 35.735 55.0021 35.735C49.2547 35.735 44.5794 31.0596 44.5794 25.3123C44.5794 22.4535 45.7408 19.8627 47.6467 17.9866V17.9568C48.6076 16.9828 49.753 16.2099 51.0158 15.6832C52.2787 15.1566 53.6338 14.8868 55.0021 14.8895C60.7495 14.8895 65.4248 19.5649 65.4248 25.3123Z" stroke="#22165B" stroke-width="7" stroke-miterlimit="10" stroke-linecap="round" stroke-linejoin="round"/>
</svg>
