<svg width="72" height="72" viewBox="0 0 72 72" fill="none" xmlns="http://www.w3.org/2000/svg">
<path d="M60.3624 55.6275C57.4142 58.3374 53.5429 59.8264 49.5228 59.7966H16.4977C2.59079 58.7841 2.56101 38.5343 16.4977 37.5218H16.6466C8.60618 15.0683 36.0924 3.99042 47.6467 17.9569V17.9866C49.7312 20.5476 51.3095 23.9425 52.0242 28.2604C55.9848 28.7667 59.201 30.7023 61.494 33.442C66.7053 39.6063 67.152 49.6717 60.3624 55.6275Z" stroke="#22165B" stroke-width="7" stroke-miterlimit="10" stroke-linecap="round" stroke-linejoin="round"/>
<path d="M21.6197 38.7427C20.0712 37.9684 18.3738 37.5515 16.6466 37.5217M47.2 29.5409C48.7485 28.7666 50.4459 28.3497 52.1731 28.3199" stroke="#22165B" stroke-width="7" stroke-miterlimit="10" stroke-linecap="round" stroke-linejoin="round"/>
<path d="M65.4248 25.3123C65.4248 28.588 63.9061 31.5361 61.494 33.442C59.1164 30.567 55.7274 28.7127 52.0242 28.2604C51.3095 23.9424 49.7312 20.5476 47.6467 17.9866V17.9568C48.6076 16.9828 49.753 16.2099 51.0158 15.6832C52.2787 15.1566 53.6338 14.8868 55.0021 14.8895C60.7495 14.8895 65.4248 19.5649 65.4248 25.3123Z" stroke="#22165B" stroke-width="7" stroke-miterlimit="10" stroke-linecap="round" stroke-linejoin="round"/>
</svg>
