<svg width="72" height="72" viewBox="0 0 72 72" fill="none" xmlns="http://www.w3.org/2000/svg">
<path d="M49.4632 59.5583C53.4536 59.5881 57.2951 58.0991 60.2433 55.419C69.981 46.9022 64.7697 29.8089 51.9349 28.2008C47.3489 0.387102 7.23634 10.9289 16.7359 37.4026" stroke="#22165B" stroke-width="7" stroke-miterlimit="10" stroke-linecap="round" stroke-linejoin="round"/>
<path d="M21.6792 38.6235C20.1009 37.8195 18.344 37.4026 16.587 37.4324C2.70991 38.4151 2.73968 58.6053 16.587 59.5881M47.1106 29.4515C48.6592 28.6773 50.3268 28.2604 52.054 28.2306M29.6898 59.5583L23.734 65.5141M41.6015 59.5583L35.6457 65.5141M41.6015 47.6466L35.6457 53.6024M29.6898 47.6466L23.734 53.6024" stroke="#22165B" stroke-width="7" stroke-miterlimit="10" stroke-linecap="round" stroke-linejoin="round"/>
</svg>
