<svg width="80" height="73" viewBox="0 0 80 73" fill="none" xmlns="http://www.w3.org/2000/svg">
<path d="M56.5192 61.6667C61.3209 61.7026 65.9434 59.9109 69.4909 56.6859C81.2084 46.4376 74.9375 25.8692 59.4934 23.9342C53.975 -9.53411 5.70752 3.15089 17.1383 35.0067" stroke="#22165B" stroke-width="7" stroke-miterlimit="10" stroke-linecap="round" stroke-linejoin="round"/>
<path d="M23.0867 36.4758C21.1875 35.5083 19.0733 35.0066 16.9592 35.0425C0.260836 36.225 0.296668 60.52 16.9592 61.7025M53.6883 25.4391C55.5517 24.5075 57.5583 24.0058 59.6367 23.97M32.7258 61.6666L25.5592 68.8333M47.0592 61.6666L39.8925 68.8333M47.0592 47.3333L39.8925 54.5M32.7258 47.3333L25.5592 54.5" stroke="#22165B" stroke-width="7" stroke-miterlimit="10" stroke-linecap="round" stroke-linejoin="round"/>
</svg>
