<svg width="72" height="72" viewBox="0 0 72 72" fill="none" xmlns="http://www.w3.org/2000/svg">
<path d="M35.735 55.0915C40.8687 55.0915 45.792 53.0521 49.4221 49.4221C53.0521 45.792 55.0915 40.8687 55.0915 35.735C55.0915 30.6013 53.0521 25.678 49.4221 22.0479C45.792 18.4179 40.8687 16.3785 35.735 16.3785C30.6013 16.3785 25.678 18.4179 22.0479 22.0479C18.4179 25.678 16.3785 30.6013 16.3785 35.735C16.3785 40.8687 18.4179 45.792 22.0479 49.4221C25.678 53.0521 30.6013 55.0915 35.735 55.0915Z" stroke="#22165B" stroke-width="7" stroke-linecap="round" stroke-linejoin="round"/>
<path d="M56.9973 56.9973L56.6102 56.6102M56.6102 14.8598L56.9973 14.4727M14.4727 56.9973L14.8598 56.6102M35.735 6.19404V5.95581M35.735 65.5141V65.2759M6.19407 35.735H5.95584M65.5142 35.735H65.2759M14.8598 14.8598L14.4727 14.4727" stroke="#22165B" stroke-width="7" stroke-linecap="round" stroke-linejoin="round"/>
</svg>
