<svg width="80" height="80" viewBox="0 0 80 80" fill="none" xmlns="http://www.w3.org/2000/svg">
<g filter="url(#filter0_d_54_8)">
<path d="M39.735 55.0915C44.8687 55.0915 49.792 53.0521 53.4221 49.4221C57.0521 45.792 59.0915 40.8687 59.0915 35.735C59.0915 30.6013 57.0521 25.678 53.4221 22.0479C49.792 18.4179 44.8687 16.3785 39.735 16.3785C34.6013 16.3785 29.678 18.4179 26.0479 22.0479C22.4179 25.678 20.3785 30.6013 20.3785 35.735C20.3785 40.8687 22.4179 45.792 26.0479 49.4221C29.678 53.0521 34.6013 55.0915 39.735 55.0915Z" stroke="#22165B" stroke-width="7" stroke-linecap="round" stroke-linejoin="round"/>
<path d="M60.9973 56.9973L60.6102 56.6102M60.6102 14.8598L60.9973 14.4727M18.4727 56.9973L18.8598 56.6102M39.735 6.19404V5.95581M39.735 65.5141V65.2759M10.1941 35.735H9.95584M69.5142 35.735H69.2759M18.8598 14.8598L18.4727 14.4727" stroke="#22165B" stroke-width="7" stroke-linecap="round" stroke-linejoin="round"/>
</g>
<defs>
<filter id="filter0_d_54_8" x="0" y="0" width="79.47" height="79.47" filterUnits="userSpaceOnUse" color-interpolation-filters="sRGB">
<feFlood flood-opacity="0" result="BackgroundImageFix"/>
<feColorMatrix in="SourceAlpha" type="matrix" values="0 0 0 0 0 0 0 0 0 0 0 0 0 0 0 0 0 0 127 0" result="hardAlpha"/>
<feOffset dy="4"/>
<feGaussianBlur stdDeviation="2"/>
<feComposite in2="hardAlpha" operator="out"/>
<feColorMatrix type="matrix" values="0 0 0 0 0 0 0 0 0 0 0 0 0 0 0 0 0 0 0.25 0"/>
<feBlend mode="normal" in2="BackgroundImageFix" result="effect1_dropShadow_54_8"/>
<feBlend mode="normal" in="SourceGraphic" in2="effect1_dropShadow_54_8" result="shape"/>
</filter>
</defs>
</svg>
