<svg width="72" height="72" viewBox="0 0 72 72" fill="none" xmlns="http://www.w3.org/2000/svg">
<path d="M49.4632 59.5583C53.4536 59.5881 57.2951 58.0991 60.2433 55.419C69.981 46.9022 64.7697 29.8089 51.9349 28.2008C47.3489 0.387102 7.23634 10.9289 16.7359 37.4026" stroke="#22165B" stroke-width="7" stroke-miterlimit="10" stroke-linecap="round" stroke-linejoin="round"/>
<path d="M27.4862 57.0568H30.4641V63.9954C30.4641 65.0079 31.7446 65.5141 32.3997 64.7399L39.6956 56.4315C40.589 55.419 40.2019 54.5852 38.8618 54.5852H35.8839V47.6466C35.8839 46.6341 34.6034 46.1279 33.9482 46.9021L26.6523 55.2105C25.759 56.223 26.1461 57.0568 27.4862 57.0568Z" fill="#D9D9D9"/>
<path d="M21.6792 38.6235C20.1009 37.8195 18.344 37.4026 16.587 37.4324C2.7099 38.4151 2.73968 58.6053 16.587 59.5881M47.1106 29.4515C48.6592 28.6773 50.3268 28.2604 52.054 28.2306M27.4862 57.0568H30.4641V63.9954C30.4641 65.0079 31.7446 65.5141 32.3997 64.7399L39.6956 56.4315C40.589 55.419 40.2019 54.5852 38.8618 54.5852H35.8839V47.6466C35.8839 46.6341 34.6034 46.1279 33.9482 46.9021L26.6523 55.2105C25.759 56.223 26.1461 57.0568 27.4862 57.0568Z" stroke="#22165B" stroke-width="7" stroke-miterlimit="10" stroke-linecap="round" stroke-linejoin="round"/>
<rect x="30" y="52" width="6" height="8" fill="#22165B"/>
</svg>
